<svg width="63.522869" height="21.462891" viewBox="0 0 63.5229 21.4629" fill="none" xmlns="http://www.w3.org/2000/svg" xmlns:xlink="http://www.w3.org/1999/xlink">
	<desc>
			Created with Pixso.
	</desc>
	<path d="M14.0124 5.1716C14.0021 6.12 13.9091 7.06553 13.7346 7.99678L13.2672 10.7871C12.312 16.455 10.8013 17.5746 6.55055 17.5746L3.8147e-06 17.5746L2.82813 1.00008L8.4203 1.00008C12.4813 0.989617 14.0124 2.03947 14.0124 5.1716ZM11.1638 5.60759C11.1638 3.72761 10.29 3.42068 7.9935 3.42068L5.25675 3.42068L3.27523 15.133L5.98498 15.133C9.17562 15.133 9.83267 14.4773 10.4491 10.7767L10.9165 7.98638C11.0636 7.20197 11.1464 6.40624 11.1638 5.60759Z" fill-rule="evenodd" fill="#203251"/>
	<path d="M24.7066 7.43826C24.7066 7.76116 24.6782 8.08336 24.6219 8.40096L24.3238 10.1449C23.9851 12.0912 23.284 12.7713 21.5193 12.7713L16.835 12.7713L16.7267 13.4514C16.6683 13.7692 16.6331 14.0909 16.6216 14.4141C16.6216 15.1779 17.0044 15.3558 18.2373 15.3558L22.5118 15.3558L21.6379 17.5671L17.7258 17.5671C14.9654 17.5671 14 16.8417 14 15.0698C14.0107 14.5562 14.0605 14.0442 14.1491 13.5386L14.9789 8.63466C15.4869 5.61061 16.7199 5.00023 19.8461 5.00023L21.2924 5.00023C23.5109 4.98628 24.7066 5.59666 24.7066 7.43826ZM22.0511 7.83236C22.0511 7.30572 21.7328 7.17318 20.7539 7.17318L19.2433 7.17318C18.2644 7.17318 17.7969 7.30573 17.5497 8.62066L17.2109 10.6332L20.825 10.6332C20.9384 10.6526 21.0546 10.6462 21.1654 10.6143C21.2761 10.5824 21.3787 10.5259 21.4659 10.4487C21.5531 10.3715 21.6228 10.2756 21.6701 10.1677C21.7173 10.0597 21.7411 9.94236 21.7396 9.82396L21.9732 8.40096C22.0113 8.21356 22.0418 8.02356 22.0511 7.83236Z" fill-rule="evenodd" fill="#203251"/>
	<path d="M25 15.1916L30.04 15.1916C30.8664 15.1916 31.0155 15.0591 31.1645 14.2046L31.3576 13.0431C31.3925 12.8778 31.414 12.7098 31.4219 12.5408C31.4219 12.2583 31.2729 12.213 30.7817 12.213L28.3397 12.213C26.4667 12.213 25.8502 11.8398 25.8502 10.5911C25.8712 9.98139 25.9426 9.37459 26.0635 8.77739L26.2329 7.79029C26.6597 5.27206 27.2965 5 29.6979 5L35.0766 5L34.1858 7.21133L29.6979 7.21133C28.8681 7.21133 28.7224 7.34039 28.5734 8.19489L28.4006 9.18199C28.3662 9.34729 28.3458 9.51529 28.3397 9.68429C28.3397 9.96679 28.4853 10.0121 28.9765 10.0121L31.527 10.0121C33.3966 10.0121 34.0131 10.3853 34.0131 11.6305C33.992 12.2412 33.9217 12.849 33.803 13.4477L33.5694 14.8428C33.1866 17.1204 32.5532 17.4274 30.04 17.4274L25.3827 17.4274L25 15.1916Z" fill-rule="evenodd" fill="#203251"/>
	<path d="M37.1067 4.8412L39.7419 4.8412L37.6385 17.2547L35 17.2547L37.1067 4.8412ZM37.8858 0L40.5955 0L40.1043 2.79032L37.3946 2.79032L37.8858 0Z" fill-rule="evenodd" fill="#203251"/>
	<path d="M51.8319 7.87749C51.7993 8.66509 51.7065 9.44879 51.5542 10.2214L50.2366 17.8947C49.7251 20.8699 48.4719 21.4629 46.0264 21.4629L41.4336 21.4629L41.0508 19.2306L45.4303 19.2306C47.0899 19.2306 47.4084 19.0981 47.7268 17.1728L47.8758 16.3182L44.8274 16.3182C42.1177 16.3182 41 15.5509 41 13.4512C41.0322 12.6635 41.1251 11.8798 41.2777 11.1073L41.5962 9.29009C42.2126 5.80221 42.9984 5 46.5515 5L48.018 5C50.704 5.01046 51.8319 5.77431 51.8319 7.87749ZM48.2586 14.1174L48.9088 10.197C49.0427 9.57719 49.1276 8.94739 49.1629 8.31349C49.1629 7.37525 48.6955 7.19737 47.3135 7.19737L46.355 7.19737C44.7393 7.19737 44.4853 7.70309 44.2109 9.29009L43.8892 11.1073C43.7604 11.728 43.6755 12.3575 43.6352 12.9908C43.6352 13.9325 44.0823 14.1069 45.4845 14.1069L48.2586 14.1174Z" fill-rule="evenodd" fill="#203251"/>
	<path d="M63.5229 7.2462C63.4751 8.14429 63.3619 9.03739 63.1841 9.91789L61.9072 17.4274L59.2721 17.4274L60.5693 9.91789C60.6847 9.34329 60.7561 8.76019 60.7827 8.17399C60.7827 7.40669 60.4643 7.25318 59.4651 7.25318L56.3592 7.25318L54.6386 17.4134L52 17.4134L54.1068 5L59.9529 5C62.6897 5.01395 63.5229 5.68363 63.5229 7.2462Z" fill-rule="evenodd" fill="#203251"/>
	<defs/>
</svg>
